<svg width="37" height="55" viewBox="0 0 37 55" fill="none" xmlns="http://www.w3.org/2000/svg">
<path d="M8.74996 19.6879C8.90127 19.6306 9.02364 19.5156 9.09013 19.3681C9.15663 19.2206 9.16181 19.0527 9.10454 18.9014L9.03256 18.7112C8.97528 18.5599 8.86024 18.4376 8.71275 18.3711C8.56526 18.3046 8.39739 18.2994 8.24607 18.3567C8.09476 18.4139 7.97239 18.529 7.90589 18.6765C7.8394 18.824 7.83421 18.9918 7.89149 19.1431L7.96347 19.3333C8.02075 19.4846 8.13578 19.607 8.28328 19.6735C8.43077 19.74 8.59864 19.7452 8.74996 19.6879Z" fill="black"/>
<path d="M12.9968 30.9086C13.1481 30.8513 13.2705 30.7363 13.337 30.5888C13.4035 30.4413 13.4086 30.2734 13.3514 30.1221L10.0401 21.3739C9.98285 21.2226 9.86781 21.1003 9.72032 21.0338C9.57282 20.9673 9.40495 20.9621 9.25364 21.0194C9.10232 21.0766 8.97996 21.1917 8.91346 21.3392C8.84696 21.4867 8.84178 21.6545 8.89906 21.8058L12.2103 30.554C12.2676 30.7053 12.3826 30.8277 12.5301 30.8942C12.6776 30.9607 12.8455 30.9659 12.9968 30.9086Z" fill="black"/>
<path d="M20.5402 53.7093L33.8527 48.6704C34.5078 48.4216 35.0376 47.923 35.3256 47.2841C35.6137 46.6452 35.6365 45.9181 35.3892 45.2624L22.7201 11.791C22.3305 10.7656 21.5617 9.92917 20.5728 9.45468C19.5838 8.9802 18.4503 8.90399 17.4067 9.24182L16.757 7.52537L17.1374 7.3814C17.2887 7.32413 17.411 7.20909 17.4775 7.06159C17.544 6.9141 17.5492 6.74623 17.4919 6.59491L16.3402 3.55207C16.0913 2.89689 15.5928 2.36717 14.9539 2.07911C14.3149 1.79106 13.5879 1.7682 12.9321 2.01554L5.32498 4.89489C4.6698 5.14374 4.14008 5.64231 3.85203 6.28123C3.56398 6.92015 3.54111 7.64724 3.78846 8.30299L4.94019 11.3458C4.99747 11.4971 5.11251 11.6195 5.26 11.686C5.40749 11.7525 5.57536 11.7577 5.72668 11.7004L6.10704 11.5565L6.75672 13.2729C5.75099 13.7108 4.95203 14.5184 4.5251 15.5288C4.09816 16.5393 4.07593 17.6751 4.46299 18.7015L17.1321 52.1728C17.381 52.828 17.8795 53.3577 18.5184 53.6457C19.1574 53.9338 19.8845 53.9566 20.5402 53.7093ZM4.92952 7.87109C4.79631 7.51799 4.8086 7.12647 4.96371 6.78243C5.11882 6.43839 5.40407 6.16993 5.75688 6.03595L13.364 3.15661C13.7171 3.02339 14.1086 3.03569 14.4527 3.1908C14.7967 3.34591 15.0652 3.63116 15.1991 3.98397L16.1349 6.45628L5.86531 10.3434L4.92952 7.87109ZM15.6159 7.95727L16.2638 9.66887L7.89596 12.8361L7.2481 11.1245L15.6159 7.95727ZM5.60405 18.2696C5.31864 17.5129 5.34501 16.674 5.67738 15.9368C6.00975 15.1995 6.62098 14.6243 7.37697 14.3371L17.6466 10.45C18.4032 10.1646 19.2422 10.191 19.9794 10.5233C20.7166 10.8557 21.2919 11.4669 21.579 12.2229L24.7994 20.7311L16.3943 23.9125C16.243 23.9698 16.1206 24.0848 16.0541 24.2323C15.9876 24.3798 15.9824 24.5477 16.0397 24.699L17.0234 27.298C17.0807 27.4493 17.1958 27.5716 17.3433 27.6381C17.4907 27.7046 17.6586 27.7098 17.8099 27.6525C17.9612 27.5953 18.0836 27.4802 18.1501 27.3327C18.2166 27.1852 18.2218 27.0174 18.1645 26.8661L17.3967 24.8376L25.2313 21.8722L30.5667 35.9682L22.7322 38.9336L19.9641 31.6205C19.9068 31.4692 19.7918 31.3468 19.6443 31.2803C19.4968 31.2138 19.3289 31.2087 19.1776 31.2659C19.0263 31.3232 18.9039 31.4382 18.8374 31.5857C18.7709 31.7332 18.7658 31.9011 18.823 32.0524L21.807 39.936C21.8643 40.0874 21.9794 40.2097 22.1269 40.2762C22.2743 40.3427 22.4422 40.3479 22.5935 40.2906L30.9986 37.1092L34.2481 45.6943C34.3813 46.0473 34.369 46.4389 34.2139 46.7829C34.0588 47.127 33.7736 47.3954 33.4208 47.5294L20.1083 52.5682C19.7552 52.7015 19.3637 52.6892 19.0196 52.5341C18.6756 52.3789 18.4071 52.0937 18.2732 51.7409L5.60405 18.2696Z" fill="black"/>
</svg>
