<svg width="48" height="62" viewBox="0 0 48 62" fill="none" xmlns="http://www.w3.org/2000/svg">
<path d="M11.905 5.81743C14.2474 4.70737 16.986 5.38903 18.561 7.30685L18.7271 7.50911L18.9221 7.33456C19.8219 6.52562 20.9662 6.03181 22.2133 5.94021C23.6897 5.83165 25.1187 6.3034 26.239 7.27015C27.3596 8.23707 28.0359 9.58138 28.1441 11.0575C28.1776 11.5173 28.067 12.4418 26.7791 15.7071C26.3135 16.8875 25.8188 18.0563 25.4472 18.9146L25.3361 19.1704L25.603 19.2525C28.1488 20.0358 30.3706 21.8422 31.598 24.4323C32.8912 27.161 35.1257 34.2446 36.4668 40.9113C37.2149 44.6304 37.5912 47.7138 37.589 50.0796C37.5876 51.6778 37.4084 52.9277 37.0593 53.8557C36.7121 54.7789 36.2023 55.3716 35.5385 55.6863C34.8747 56.0009 34.0924 56.0205 33.1579 55.7046C32.2186 55.387 31.1377 54.7343 29.8999 53.7234C28.0674 52.227 25.9193 49.9833 23.5145 47.0493C19.2039 41.7899 15.1372 35.5745 13.8441 32.8457C12.6167 30.2556 12.6245 27.3927 13.6304 24.9263L13.7358 24.6677L13.4675 24.5917C12.5681 24.3358 11.3505 23.9788 10.1416 23.5915C7.21708 22.6547 6.25018 22.1545 5.83012 21.8318L5.67951 21.7033C4.60524 20.6848 3.99328 19.3101 3.95452 17.8306C3.91579 16.3515 4.45478 14.9469 5.47347 13.8731C6.33409 12.9658 7.44169 12.3923 8.63761 12.2083L8.89531 12.1683L8.84394 11.9117C8.3569 9.47838 9.56293 6.92755 11.905 5.81743ZM19.2311 21.2746C15.1708 23.1988 13.4332 28.0678 15.3576 32.1285C16.6204 34.7934 20.5921 40.8405 24.8107 45.9876C24.9602 46.1701 25.1068 46.3482 25.2524 46.5229L25.3768 46.6714L29.1318 44.892C29.5497 44.6939 30.0491 44.8717 30.2474 45.2894C30.4455 45.7075 30.2671 46.2073 29.849 46.4054L26.5053 47.99L26.7272 48.2393C29.0662 50.8749 30.8511 52.4467 32.152 53.3175C32.802 53.7525 33.3399 54.018 33.7716 54.1515C34.195 54.2824 34.5559 54.2975 34.8209 54.1719C35.1181 54.0309 35.3571 53.6832 35.5334 53.1761C35.7138 52.6572 35.8461 51.9209 35.8942 50.9227C35.9904 48.9245 35.7491 45.8352 34.8252 41.2419C33.5128 34.7175 31.3474 27.8144 30.0845 25.1495C28.1601 21.089 23.2915 19.3505 19.2311 21.2746ZM9.28889 13.8243C8.30489 13.8747 7.38073 14.2959 6.68843 15.0253C5.97812 15.774 5.60143 16.7561 5.62849 17.7873C5.6555 18.8181 6.08318 19.7779 6.83131 20.4874L6.83731 20.4932L6.84288 20.4981C6.98475 20.6171 7.26984 20.7601 7.64645 20.9213C8.03483 21.0876 8.55334 21.2859 9.19047 21.5091C10.4656 21.956 12.2264 22.5078 14.3955 23.1134L14.5662 23.1611L14.668 23.0156C15.0092 22.5252 15.3972 22.0633 15.8284 21.6379L15.9979 21.4711L15.8392 21.2935C12.9119 18.0142 10.7099 15.487 9.69591 13.933L9.62143 13.8191L9.48644 13.8193L9.28889 13.8243ZM22.3358 7.61018C21.2661 7.68887 20.3007 8.19421 19.6306 9.01209L19.545 9.11643L19.5859 9.24616C20.1711 11.0858 20.7679 14.5702 21.4176 18.6596L21.4551 18.8937L21.691 18.8694C22.2853 18.8073 22.8797 18.7998 23.4672 18.8457L23.6443 18.8591L23.7154 18.6968C24.6204 16.634 25.3083 14.9214 25.7698 13.6502C26.0004 13.0149 26.1763 12.4876 26.2935 12.0803C26.4072 11.6851 26.4755 11.3719 26.4731 11.1847L26.4726 11.1698C26.3977 10.1507 25.9253 9.21215 25.1447 8.53875C24.3636 7.86482 23.3651 7.53448 22.3358 7.61018ZM12.6222 7.3309C10.696 8.24397 9.87062 10.5526 10.7829 12.4777C10.9441 12.8178 11.2696 13.2963 11.6921 13.8558C12.1182 14.4202 12.6555 15.082 13.2526 15.792C14.4471 17.2122 15.8884 18.8351 17.1755 20.2755L17.3159 20.4326L17.4948 20.3198C17.8197 20.1161 18.1595 19.9291 18.5139 19.7612C18.876 19.5896 19.2436 19.4424 19.6149 19.3183L19.8155 19.2513L19.7832 19.0419C19.5078 17.3024 19.1629 15.1716 18.8103 13.3128C18.6341 12.3837 18.4552 11.52 18.2814 10.8056C18.109 10.0972 17.9373 9.51634 17.7713 9.16592C16.8589 7.2407 14.5489 6.41787 12.6222 7.3309Z" fill="black" stroke="#F5FAFF" stroke-width="0.5"/>
<path d="M17.8211 29.9708L21.2981 28.3231C21.7161 28.125 22.216 28.3034 22.4141 28.7215C22.612 29.1395 22.4333 29.6385 22.0153 29.8366L18.5383 31.4843C18.1204 31.6824 17.6209 31.5047 17.4228 31.0868C17.2246 30.6688 17.4031 30.169 17.8211 29.9708Z" fill="black" stroke="#F5FAFF" stroke-width="0.5"/>
<path d="M24.3401 35.6706L29.9042 33.0339C30.3223 32.8358 30.8221 33.0142 31.0202 33.4322C31.2181 33.8502 31.0394 34.3493 30.6214 34.5473L25.0574 37.1841C24.6394 37.3822 24.14 37.2045 23.9418 36.7866C23.7561 36.3947 23.9008 35.9306 24.2642 35.711L24.3401 35.6706Z" fill="black" stroke="#F5FAFF" stroke-width="0.5"/>
</svg>
