<svg width="53" height="45" viewBox="0 0 53 45" fill="none" xmlns="http://www.w3.org/2000/svg">
<path d="M14.8085 5.7295C17.9542 5.15999 26.0776 3.90977 33.5997 4.58018C37.5103 4.92873 40.6971 5.75733 43.0758 7.03772C46.0157 8.62021 47.7663 10.8977 48.2931 13.8074L49.4276 20.0737C50.4903 25.943 46.58 31.5833 40.7106 32.6461C36.1925 33.4641 33.2219 35.387 30.3629 37.2369C27.598 39.0259 25.0019 40.7044 21.2633 41.3813C13.1621 42.8481 5.37717 37.45 3.91042 29.3487L2.7759 23.0824C1.30917 14.9812 6.70733 7.19623 14.8085 5.7295ZM15.0975 7.32563C7.87616 8.63306 3.06459 15.5721 4.37202 22.7934C5.67947 30.0147 12.6183 34.8254 19.8397 33.518C23.2635 32.898 25.741 31.2937 28.3465 29.6078C31.3549 27.6614 34.4524 25.658 39.2869 24.7827C39.5683 24.7318 39.85 24.667 40.1245 24.5904C40.5554 24.47 41.0041 24.7224 41.1246 25.1537C41.2449 25.5849 40.9924 26.0323 40.5612 26.1528C40.2383 26.243 39.9068 26.319 39.5759 26.3789C35.0579 27.1969 32.0872 29.1198 29.2282 30.9696C26.4633 32.7586 23.8672 34.4372 20.1286 35.1141C14.5831 36.1181 9.18572 33.9054 5.86175 29.8102L5.68699 29.8974C7.35952 36.6487 14.0361 41.0414 20.9744 39.7852C24.3981 39.1653 26.8758 37.5609 29.4812 35.8751C32.4896 33.9286 35.5871 31.9253 40.4216 31.05C45.4112 30.1465 48.7358 25.3522 47.8324 20.3625L47.7103 19.6879L47.5791 19.9935C47.2927 20.6604 46.9386 21.3013 46.5197 21.9042L46.3367 22.1596C46.0706 22.5197 45.5627 22.5963 45.2025 22.3303C44.8424 22.0642 44.766 21.5562 45.0318 21.196C46.5379 19.158 47.1457 16.5702 46.6979 14.0962C46.2863 11.8227 44.9565 10.0215 42.7381 8.70265C40.523 7.38581 37.4208 6.5496 33.4556 6.19616C26.1266 5.54304 18.1745 6.76854 15.0975 7.32563Z" fill="#020202" stroke="#F5FAFF" stroke-width="0.2"/>
<path d="M43.298 22.984C43.6625 22.7243 44.169 22.8087 44.4289 23.1732C44.6864 23.5347 44.6048 24.0358 44.2484 24.2976L44.2474 24.2978C44.1443 24.3739 44.0296 24.4225 43.9116 24.4439C43.6186 24.497 43.307 24.3855 43.1167 24.1313C42.8489 23.7732 42.9209 23.265 43.2784 22.9965L43.2795 22.9973C43.2858 22.9926 43.2925 22.9873 43.297 22.9842L43.298 22.984Z" fill="#020202" stroke="#F5FAFF" stroke-width="0.2"/>
<path d="M16.9629 12.725C19.4237 12.2797 21.7376 13.7342 22.1376 15.9434C22.5375 18.1526 20.8803 20.3252 18.4196 20.7709C15.9588 21.2165 13.6442 19.7629 13.2441 17.5536C12.8441 15.3443 14.502 13.1705 16.9629 12.725ZM17.2519 14.3211C15.6961 14.6028 14.5953 15.9116 14.8402 17.2646C15.0853 18.6176 16.5749 19.4565 18.1306 19.1748C19.6861 18.893 20.7863 17.5853 20.5415 16.2324C20.2965 14.8794 18.8075 14.0397 17.2519 14.3211Z" fill="#020202" stroke="#F5FAFF" stroke-width="0.2"/>
</svg>
